<svg width="403" height="23" viewBox="0 0 403 23" fill="none" xmlns="http://www.w3.org/2000/svg">
<path d="M11.7399 5.224V6.616H7.08391V22H5.40391V6.616H0.723906V5.224H11.7399ZM21.9287 22.168C20.3767 22.168 18.9687 21.808 17.7047 21.088C16.4407 20.352 15.4407 19.336 14.7047 18.04C13.9847 16.728 13.6247 15.248 13.6247 13.6C13.6247 11.952 13.9847 10.48 14.7047 9.184C15.4407 7.872 16.4407 6.856 17.7047 6.136C18.9687 5.4 20.3767 5.032 21.9287 5.032C23.4967 5.032 24.9127 5.4 26.1767 6.136C27.4407 6.856 28.4327 7.872 29.1527 9.184C29.8727 10.48 30.2327 11.952 30.2327 13.6C30.2327 15.248 29.8727 16.728 29.1527 18.04C28.4327 19.336 27.4407 20.352 26.1767 21.088C24.9127 21.808 23.4967 22.168 21.9287 22.168ZM21.9287 20.704C23.1767 20.704 24.2967 20.416 25.2887 19.84C26.2807 19.264 27.0647 18.44 27.6407 17.368C28.2167 16.28 28.5047 15.024 28.5047 13.6C28.5047 12.176 28.2167 10.928 27.6407 9.856C27.0647 8.784 26.2807 7.96 25.2887 7.384C24.2967 6.808 23.1767 6.52 21.9287 6.52C20.6807 6.52 19.5607 6.808 18.5687 7.384C17.5767 7.96 16.7927 8.784 16.2167 9.856C15.6407 10.928 15.3527 12.176 15.3527 13.6C15.3527 15.024 15.6407 16.28 16.2167 17.368C16.7927 18.44 17.5767 19.264 18.5687 19.84C19.5607 20.416 20.6807 20.704 21.9287 20.704ZM24.2567 1.576L19.3367 4.432V3.136L24.2567 0.0639992V1.576ZM44.0347 10.048C44.0347 11.488 43.5627 12.648 42.6187 13.528C41.6747 14.408 40.2587 14.848 38.3707 14.848H34.9867V22H33.3067V5.224H38.3707C40.2427 5.224 41.6507 5.664 42.5947 6.544C43.5547 7.424 44.0347 8.592 44.0347 10.048ZM38.3707 13.408C40.9947 13.408 42.3067 12.288 42.3067 10.048C42.3067 8.928 41.9947 8.08 41.3707 7.504C40.7467 6.928 39.7467 6.64 38.3707 6.64H34.9867V13.408H38.3707ZM48.5336 5.224V22H46.8536V5.224H48.5336ZM51.57 13.6C51.57 11.952 51.93 10.48 52.65 9.184C53.37 7.872 54.354 6.856 55.602 6.136C56.85 5.4 58.242 5.032 59.778 5.032C61.65 5.032 63.25 5.48 64.578 6.376C65.922 7.256 66.898 8.504 67.506 10.12H65.538C65.058 8.984 64.322 8.096 63.33 7.456C62.354 6.816 61.17 6.496 59.778 6.496C58.546 6.496 57.434 6.784 56.442 7.36C55.466 7.936 54.698 8.768 54.138 9.856C53.578 10.928 53.298 12.176 53.298 13.6C53.298 15.024 53.578 16.272 54.138 17.344C54.698 18.416 55.466 19.24 56.442 19.816C57.434 20.392 58.546 20.68 59.778 20.68C61.17 20.68 62.354 20.368 63.33 19.744C64.322 19.104 65.058 18.224 65.538 17.104H67.506C66.898 18.704 65.922 19.944 64.578 20.824C63.234 21.704 61.634 22.144 59.778 22.144C58.242 22.144 56.85 21.784 55.602 21.064C54.354 20.328 53.37 19.312 52.65 18.016C51.93 16.72 51.57 15.248 51.57 13.6ZM78.3896 22.168C76.8376 22.168 75.4296 21.808 74.1656 21.088C72.9016 20.352 71.9016 19.336 71.1656 18.04C70.4456 16.728 70.0856 15.248 70.0856 13.6C70.0856 11.952 70.4456 10.48 71.1656 9.184C71.9016 7.872 72.9016 6.856 74.1656 6.136C75.4296 5.4 76.8376 5.032 78.3896 5.032C79.9576 5.032 81.3736 5.4 82.6376 6.136C83.9016 6.856 84.8936 7.872 85.6136 9.184C86.3336 10.48 86.6936 11.952 86.6936 13.6C86.6936 15.248 86.3336 16.728 85.6136 18.04C84.8936 19.336 83.9016 20.352 82.6376 21.088C81.3736 21.808 79.9576 22.168 78.3896 22.168ZM78.3896 20.704C79.6376 20.704 80.7576 20.416 81.7496 19.84C82.7416 19.264 83.5256 18.44 84.1016 17.368C84.6776 16.28 84.9656 15.024 84.9656 13.6C84.9656 12.176 84.6776 10.928 84.1016 9.856C83.5256 8.784 82.7416 7.96 81.7496 7.384C80.7576 6.808 79.6376 6.52 78.3896 6.52C77.1416 6.52 76.0216 6.808 75.0296 7.384C74.0376 7.96 73.2536 8.784 72.6776 9.856C72.1016 10.928 71.8136 12.176 71.8136 13.6C71.8136 15.024 72.1016 16.28 72.6776 17.368C73.2536 18.44 74.0376 19.264 75.0296 19.84C76.0216 20.416 77.1416 20.704 78.3896 20.704ZM94.8557 22.168C93.7517 22.168 92.7757 21.976 91.9277 21.592C91.0957 21.208 90.4397 20.672 89.9597 19.984C89.4797 19.296 89.2237 18.528 89.1917 17.68H90.9677C91.0477 18.496 91.4077 19.216 92.0477 19.84C92.6877 20.448 93.6237 20.752 94.8557 20.752C95.9917 20.752 96.8877 20.464 97.5437 19.888C98.2157 19.296 98.5517 18.552 98.5517 17.656C98.5517 16.936 98.3677 16.36 97.9997 15.928C97.6317 15.48 97.1757 15.152 96.6317 14.944C96.0877 14.72 95.3357 14.48 94.3757 14.224C93.2557 13.92 92.3677 13.624 91.7117 13.336C91.0557 13.048 90.4957 12.6 90.0317 11.992C89.5677 11.384 89.3357 10.56 89.3357 9.52C89.3357 8.656 89.5597 7.888 90.0077 7.216C90.4557 6.528 91.0877 5.992 91.9037 5.608C92.7197 5.224 93.6557 5.032 94.7117 5.032C96.2637 5.032 97.5117 5.416 98.4557 6.184C99.4157 6.936 99.9677 7.912 100.112 9.112H98.2877C98.1757 8.424 97.7997 7.816 97.1597 7.288C96.5197 6.744 95.6557 6.472 94.5677 6.472C93.5597 6.472 92.7197 6.744 92.0477 7.288C91.3757 7.816 91.0397 8.544 91.0397 9.472C91.0397 10.176 91.2237 10.744 91.5917 11.176C91.9597 11.608 92.4157 11.936 92.9597 12.16C93.5197 12.384 94.2717 12.624 95.2157 12.88C96.3037 13.184 97.1837 13.488 97.8557 13.792C98.5277 14.08 99.0957 14.528 99.5597 15.136C100.024 15.744 100.256 16.56 100.256 17.584C100.256 18.368 100.048 19.112 99.6317 19.816C99.2157 20.52 98.5997 21.088 97.7837 21.52C96.9677 21.952 95.9917 22.168 94.8557 22.168ZM123.384 5.224L117.024 22H115.104L108.744 5.224H110.568L116.064 20.176L121.608 5.224H123.384ZM127.588 5.224V22H125.908V5.224H127.588ZM136.481 22.168C135.377 22.168 134.401 21.976 133.553 21.592C132.721 21.208 132.065 20.672 131.585 19.984C131.105 19.296 130.849 18.528 130.817 17.68H132.593C132.673 18.496 133.033 19.216 133.673 19.84C134.313 20.448 135.249 20.752 136.481 20.752C137.617 20.752 138.513 20.464 139.169 19.888C139.841 19.296 140.177 18.552 140.177 17.656C140.177 16.936 139.993 16.36 139.625 15.928C139.257 15.48 138.801 15.152 138.257 14.944C137.713 14.72 136.961 14.48 136.001 14.224C134.881 13.92 133.993 13.624 133.337 13.336C132.681 13.048 132.121 12.6 131.657 11.992C131.193 11.384 130.961 10.56 130.961 9.52C130.961 8.656 131.185 7.888 131.633 7.216C132.081 6.528 132.713 5.992 133.529 5.608C134.345 5.224 135.281 5.032 136.337 5.032C137.889 5.032 139.137 5.416 140.081 6.184C141.041 6.936 141.593 7.912 141.737 9.112H139.913C139.801 8.424 139.425 7.816 138.785 7.288C138.145 6.744 137.281 6.472 136.193 6.472C135.185 6.472 134.345 6.744 133.673 7.288C133.001 7.816 132.665 8.544 132.665 9.472C132.665 10.176 132.849 10.744 133.217 11.176C133.585 11.608 134.041 11.936 134.585 12.16C135.145 12.384 135.897 12.624 136.841 12.88C137.929 13.184 138.809 13.488 139.481 13.792C140.153 14.08 140.721 14.528 141.185 15.136C141.649 15.744 141.881 16.56 141.881 17.584C141.881 18.368 141.673 19.112 141.257 19.816C140.841 20.52 140.225 21.088 139.409 21.52C138.593 21.952 137.617 22.168 136.481 22.168ZM146.807 5.224V22H145.127V5.224H146.807ZM160.427 5.224V6.616H155.771V22H154.091V6.616H149.411V5.224H160.427ZM172.8 18.016H165.168L163.704 22H161.928L168.048 5.44H169.944L176.04 22H174.264L172.8 18.016ZM172.296 16.624L168.984 7.552L165.672 16.624H172.296ZM183.704 5.224C185.56 5.224 187.152 5.56 188.48 6.232C189.808 6.904 190.824 7.872 191.528 9.136C192.232 10.4 192.584 11.904 192.584 13.648C192.584 15.376 192.232 16.872 191.528 18.136C190.824 19.384 189.808 20.344 188.48 21.016C187.152 21.672 185.56 22 183.704 22H178.736V5.224H183.704ZM183.704 20.608C186.04 20.608 187.816 20 189.032 18.784C190.264 17.552 190.88 15.84 190.88 13.648C190.88 11.44 190.264 9.72 189.032 8.488C187.816 7.24 186.04 6.616 183.704 6.616H180.416V20.608H183.704ZM203.218 22.168C201.666 22.168 200.258 21.808 198.994 21.088C197.73 20.352 196.73 19.336 195.994 18.04C195.274 16.728 194.914 15.248 194.914 13.6C194.914 11.952 195.274 10.48 195.994 9.184C196.73 7.872 197.73 6.856 198.994 6.136C200.258 5.4 201.666 5.032 203.218 5.032C204.786 5.032 206.202 5.4 207.466 6.136C208.73 6.856 209.722 7.872 210.442 9.184C211.162 10.48 211.522 11.952 211.522 13.6C211.522 15.248 211.162 16.728 210.442 18.04C209.722 19.336 208.73 20.352 207.466 21.088C206.202 21.808 204.786 22.168 203.218 22.168ZM203.218 20.704C204.466 20.704 205.586 20.416 206.578 19.84C207.57 19.264 208.354 18.44 208.93 17.368C209.506 16.28 209.794 15.024 209.794 13.6C209.794 12.176 209.506 10.928 208.93 9.856C208.354 8.784 207.57 7.96 206.578 7.384C205.586 6.808 204.466 6.52 203.218 6.52C201.97 6.52 200.85 6.808 199.858 7.384C198.866 7.96 198.082 8.784 197.506 9.856C196.93 10.928 196.642 12.176 196.642 13.6C196.642 15.024 196.93 16.28 197.506 17.368C198.082 18.44 198.866 19.264 199.858 19.84C200.85 20.416 201.97 20.704 203.218 20.704ZM219.684 22.168C218.58 22.168 217.604 21.976 216.756 21.592C215.924 21.208 215.268 20.672 214.788 19.984C214.308 19.296 214.052 18.528 214.02 17.68H215.796C215.876 18.496 216.236 19.216 216.876 19.84C217.516 20.448 218.452 20.752 219.684 20.752C220.82 20.752 221.716 20.464 222.372 19.888C223.044 19.296 223.38 18.552 223.38 17.656C223.38 16.936 223.196 16.36 222.828 15.928C222.46 15.48 222.004 15.152 221.46 14.944C220.916 14.72 220.164 14.48 219.204 14.224C218.084 13.92 217.196 13.624 216.54 13.336C215.884 13.048 215.324 12.6 214.86 11.992C214.396 11.384 214.164 10.56 214.164 9.52C214.164 8.656 214.388 7.888 214.836 7.216C215.284 6.528 215.916 5.992 216.732 5.608C217.548 5.224 218.484 5.032 219.54 5.032C221.092 5.032 222.34 5.416 223.284 6.184C224.244 6.936 224.796 7.912 224.94 9.112H223.116C223.004 8.424 222.628 7.816 221.988 7.288C221.348 6.744 220.484 6.472 219.396 6.472C218.388 6.472 217.548 6.744 216.876 7.288C216.204 7.816 215.868 8.544 215.868 9.472C215.868 10.176 216.052 10.744 216.42 11.176C216.788 11.608 217.244 11.936 217.788 12.16C218.348 12.384 219.1 12.624 220.044 12.88C221.132 13.184 222.012 13.488 222.684 13.792C223.356 14.08 223.924 14.528 224.388 15.136C224.852 15.744 225.084 16.56 225.084 17.584C225.084 18.368 224.876 19.112 224.46 19.816C224.044 20.52 223.428 21.088 222.612 21.52C221.796 21.952 220.82 22.168 219.684 22.168ZM243.844 22L239.692 14.992H236.596V22H234.916V5.224H239.956C241.828 5.224 243.244 5.672 244.204 6.568C245.18 7.464 245.668 8.64 245.668 10.096C245.668 11.312 245.316 12.352 244.612 13.216C243.924 14.064 242.9 14.616 241.54 14.872L245.86 22H243.844ZM236.596 13.624H239.98C241.292 13.624 242.276 13.304 242.932 12.664C243.604 12.024 243.94 11.168 243.94 10.096C243.94 8.992 243.62 8.144 242.98 7.552C242.34 6.944 241.332 6.64 239.956 6.64H236.596V13.624ZM250.682 6.592V12.856H257.042V14.248H250.682V20.608H257.762V22H249.002V5.2H257.762V6.592H250.682ZM260.304 13.6C260.304 11.952 260.664 10.48 261.384 9.184C262.104 7.872 263.088 6.856 264.336 6.136C265.584 5.4 266.976 5.032 268.512 5.032C270.384 5.032 271.984 5.48 273.312 6.376C274.656 7.256 275.632 8.504 276.24 10.12H274.272C273.792 8.984 273.056 8.096 272.064 7.456C271.088 6.816 269.904 6.496 268.512 6.496C267.28 6.496 266.168 6.784 265.176 7.36C264.2 7.936 263.432 8.768 262.872 9.856C262.312 10.928 262.032 12.176 262.032 13.6C262.032 15.024 262.312 16.272 262.872 17.344C263.432 18.416 264.2 19.24 265.176 19.816C266.168 20.392 267.28 20.68 268.512 20.68C269.904 20.68 271.088 20.368 272.064 19.744C273.056 19.104 273.792 18.224 274.272 17.104H276.24C275.632 18.704 274.656 19.944 273.312 20.824C271.968 21.704 270.368 22.144 268.512 22.144C266.976 22.144 265.584 21.784 264.336 21.064C263.088 20.328 262.104 19.312 261.384 18.016C260.664 16.72 260.304 15.248 260.304 13.6ZM281.268 6.592V12.856H287.628V14.248H281.268V20.608H288.348V22H279.588V5.2H288.348V6.592H281.268ZM304.306 22H302.626L293.338 7.888V22H291.658V5.224H293.338L302.626 19.312V5.224H304.306V22ZM317.927 5.224V6.616H313.271V22H311.591V6.616H306.911V5.224H317.927ZM322.26 6.592V12.856H328.62V14.248H322.26V20.608H329.34V22H320.58V5.2H329.34V6.592H322.26ZM349.042 5.44V22H347.362V8.776L341.458 22H340.234L334.33 8.824V22H332.65V5.44H334.426L340.834 19.792L347.242 5.44H349.042ZM354.534 6.592V12.856H360.894V14.248H354.534V20.608H361.614V22H352.854V5.2H361.614V6.592H354.534ZM377.572 22H375.892L366.604 7.888V22H364.924V5.224H366.604L375.892 19.312V5.224H377.572V22ZM391.193 5.224V6.616H386.537V22H384.857V6.616H380.177V5.224H391.193ZM395.526 6.592V12.856H401.886V14.248H395.526V20.608H402.606V22H393.846V5.2H402.606V6.592H395.526Z" fill="white"/>
</svg>
